<svg width="48" height="48" viewBox="0 0 48 48" fill="none" xmlns="http://www.w3.org/2000/svg">
<g clip-path="url(#clip0)">
<path d="M24 47.999C37.2548 47.999 48 37.2538 48 23.999C48 10.7442 37.2548 -0.00100708 24 -0.00100708C10.7452 -0.00100708 0 10.7442 0 23.999C0 37.2538 10.7452 47.999 24 47.999Z" fill="#DC4E41"/>
<path d="M8.35569 25.0745C8.27055 29.2038 11.1147 33.1445 15.0272 34.4297C18.7124 35.6678 23.2435 34.7416 25.6958 31.5855C27.4862 29.3741 27.8931 26.426 27.6993 23.6717C24.5432 23.6434 21.3872 23.6528 18.2358 23.6575C18.2307 24.7819 18.2358 25.9019 18.2405 27.0262C20.1302 27.0784 22.0203 27.0544 23.91 27.0925C23.433 28.7272 22.3463 30.2486 20.6971 30.839C17.5128 32.2422 13.4498 30.409 12.4478 27.0686C11.2384 23.8697 13.2183 20.0095 16.4873 19.079C18.5143 18.3658 20.6025 19.1688 22.3369 20.2225C23.2157 19.4003 24.038 18.5215 24.8457 17.6334C22.8751 15.9845 20.3428 14.9736 17.7395 15.1956C12.6318 15.2564 8.16188 19.9718 8.35569 25.0745Z" fill="#DC4E41"/>
<path d="M33.8412 20.8215C33.8318 21.7619 33.822 22.707 33.8173 23.6469C32.8722 23.6563 31.9323 23.661 30.9919 23.6657C30.9919 24.6061 30.9919 25.5413 30.9919 26.4816C31.9323 26.4863 32.8774 26.4911 33.8173 26.5009C33.8267 27.4412 33.8267 28.3812 33.8361 29.3262C34.7718 29.3262 35.7121 29.3215 36.652 29.3262C36.6572 28.3812 36.6615 27.4412 36.6713 26.4962C37.6112 26.4915 38.5563 26.4868 39.4966 26.4821C39.4966 25.5417 39.4966 24.6065 39.4966 23.6661C38.5567 23.6614 37.6116 23.6567 36.6713 23.6473C36.6662 22.707 36.6572 21.7619 36.652 20.822C35.7121 20.8215 34.7765 20.8215 33.8412 20.8215Z" fill="#DC4E41"/>
<path d="M8.35569 25.0739C8.16188 19.9713 12.6313 15.2558 17.7391 15.1946C20.3424 14.9726 22.8751 15.9835 24.8453 17.6324C24.0371 18.5209 23.2148 19.3993 22.3365 20.2215C20.6021 19.1678 18.5139 18.3648 16.4869 19.078C13.2175 20.0089 11.2375 23.8692 12.4474 27.0676C13.4493 30.408 17.5124 32.2412 20.6967 30.838C22.3455 30.2476 23.4326 28.7262 23.9096 27.0915C22.0199 27.0539 20.1298 27.0774 18.2401 27.0252C18.2354 25.9009 18.2307 24.7808 18.2354 23.6565C21.3867 23.6518 24.5428 23.6424 27.6988 23.6706C27.8926 26.4254 27.4862 29.3735 25.6953 31.5845C23.2431 34.7406 18.7124 35.6668 15.0267 34.4287C11.1151 33.1439 8.27055 29.2033 8.35569 25.0739Z" fill="white"/>
<path d="M33.8412 20.8215C34.7769 20.8215 35.7121 20.8215 36.652 20.8215C36.6572 21.7619 36.6662 22.707 36.6713 23.6469C37.6112 23.6563 38.5563 23.661 39.4966 23.6657C39.4966 24.6061 39.4966 25.5413 39.4966 26.4816C38.5567 26.4863 37.6116 26.4911 36.6713 26.4958C36.6619 27.4408 36.6572 28.3807 36.652 29.3258C35.7121 29.3211 34.7713 29.3258 33.8361 29.3258C33.8271 28.3807 33.8271 27.4408 33.8173 26.5005C32.8774 26.4906 31.9323 26.4863 30.9919 26.4812C30.9919 25.5409 30.9919 24.6056 30.9919 23.6653C31.9323 23.6606 32.8727 23.6559 33.8173 23.6465C33.822 22.707 33.8314 21.7619 33.8412 20.8215Z" fill="white"/>
</g>
<defs>
<clipPath id="clip0">
<rect width="48" height="48" fill="white"/>
</clipPath>
</defs>
</svg>
