<svg width="48" height="48" viewBox="0 0 48 48" fill="none" xmlns="http://www.w3.org/2000/svg">
<path d="M24 48C37.2548 48 48 37.2548 48 24C48 10.7452 37.2548 0 24 0C10.7452 0 0 10.7452 0 24C0 37.2548 10.7452 48 24 48Z" fill="#4D76A1"/>
<path fill-rule="evenodd" clip-rule="evenodd" d="M23.0936 34.5265H24.9773C24.9773 34.5265 25.5463 34.4641 25.8368 34.1509C26.1041 33.8634 26.0956 33.3235 26.0956 33.3235C26.0956 33.3235 26.0588 30.7959 27.2319 30.4237C28.3883 30.0571 29.8733 32.8666 31.4472 33.9468C32.6374 34.7644 33.5418 34.5851 33.5418 34.5851L37.7503 34.5265C37.7503 34.5265 39.9519 34.3909 38.908 32.6599C38.8225 32.5183 38.3001 31.3795 35.7789 29.0393C33.1401 26.59 33.4935 26.9861 36.6722 22.7494C38.6081 20.1692 39.3821 18.594 39.1403 17.9193C38.9097 17.2767 37.4859 17.4465 37.4859 17.4465L32.7474 17.4761C32.7474 17.4761 32.3961 17.4282 32.1356 17.5839C31.881 17.7366 31.7172 18.0926 31.7172 18.0926C31.7172 18.0926 30.9672 20.0892 29.967 21.7872C27.8569 25.3703 27.0133 25.5594 26.6684 25.3369C25.8663 24.8184 26.0665 23.2538 26.0665 22.1423C26.0665 18.6701 26.5931 17.2224 25.041 16.8476C24.5259 16.7231 24.1469 16.641 22.8296 16.6277C21.1388 16.6102 19.7078 16.6328 18.8975 17.0299C18.3584 17.2938 17.9426 17.8821 18.1958 17.9159C18.509 17.9578 19.2183 18.1071 19.5944 18.6192C20.08 19.2798 20.0629 20.7635 20.0629 20.7635C20.0629 20.7635 20.3418 24.8509 19.4113 25.3587C18.7725 25.707 17.8964 24.9959 16.0152 21.7453C15.0513 20.0802 14.3236 18.2397 14.3236 18.2397C14.3236 18.2397 14.1833 17.8958 13.933 17.7118C13.6293 17.4889 13.2049 17.4179 13.2049 17.4179L8.70202 17.4474C8.70202 17.4474 8.02606 17.4662 7.77793 17.7601C7.55717 18.0215 7.76039 18.5623 7.76039 18.5623C7.76039 18.5623 11.2856 26.8099 15.2772 30.9662C18.9373 34.7768 23.0936 34.5265 23.0936 34.5265Z" fill="white"/>
</svg>
