<svg width="124" height="108" viewBox="0 0 124 108" fill="none" xmlns="http://www.w3.org/2000/svg">
<g clip-path="url(#clip0)">
<path d="M82.8859 62.8722H40.8068C35.0081 62.8722 30.3069 58.1887 30.3069 52.4118V10.4913C30.3069 4.71439 35.0081 0.0308838 40.8068 0.0308838H82.8859C88.6846 0.0308838 93.3859 4.71439 93.3859 10.4913V52.4118C93.3859 58.1887 88.6846 62.8722 82.8859 62.8722Z" fill="#F3A71B"/>
<path d="M3.76465 96.545C3.76465 98.132 4.42899 98.7964 6.01605 98.7964H16.7564C18.3434 98.7964 19.0078 98.132 19.0078 96.545V93.9614H16.6087V95.6961C16.6087 96.2497 16.3135 96.5081 15.7967 96.5081H7.16021C6.64349 96.5081 6.34822 96.2497 6.34822 95.6961V75.1013C6.34822 73.5142 5.68388 72.8499 4.09682 72.8499H1.36561V75.1382H2.95266C3.46938 75.1382 3.76465 75.3965 3.76465 75.9502V96.545ZM22.6357 76.024H25.0348V72.8499H22.6357V76.024ZM22.7096 96.545C22.7096 98.132 23.3739 98.7964 24.961 98.7964H27.5814V96.6188H26.0313C25.5146 96.6188 25.2193 96.3604 25.2193 95.8068V82.4829C25.2193 80.8959 24.555 80.2315 22.9679 80.2315H20.3474V82.4091H21.8976C22.4143 82.4091 22.7096 82.6675 22.7096 83.2211V96.545ZM31.0964 98.7964H33.6061V89.4955H35.3039C35.9683 89.4955 36.8541 89.5693 37.2601 90.3075L40.9509 96.951C41.7998 98.5011 42.3165 98.7964 44.1619 98.7964H45.8966V96.6188H44.9001C43.9036 96.6188 43.5345 96.4343 43.2023 95.8068L39.8436 89.7908C39.2531 88.6835 38.6626 88.4252 38.6626 88.4252V88.3513C38.6626 88.3513 39.1793 88.1668 40.0651 87.0226L45.4168 80.2315H42.3903L37.6291 86.4321C37.1124 87.0965 36.2266 87.3179 35.4885 87.3179H33.6061V74.9905C33.6061 73.4035 32.9418 72.8499 31.3547 72.8499H28.7343V75.0275H30.2844C30.8011 75.0275 31.0964 75.2858 31.0964 75.8394V98.7964ZM47.1045 89.5324C47.1045 95.2532 51.312 99.2393 56.8483 99.2393C60.6129 99.2393 63.2703 96.9879 63.7132 96.6557L62.5691 94.7365C62.2369 94.921 60.1331 96.951 56.9221 96.951C53.0836 96.951 49.7988 94.3305 49.725 89.6062H63.9716C63.9716 89.4586 64.0454 88.8311 64.0454 88.3513C64.0454 83.7378 61.4249 79.7886 56.2946 79.7886C51.2751 79.7886 47.1045 83.4425 47.1045 89.5324ZM49.8357 87.6132C50.4262 83.8854 53.1205 81.8555 56.2208 81.8555C58.989 81.8555 61.3511 83.7378 61.4987 87.6132H49.8357ZM70.9083 98.7964H73.4919V87.5025L80.4306 76.0978C80.8735 75.3227 81.3903 75.1382 82.1653 75.1382H82.7559V72.8499H81.7593C79.9508 72.8499 79.3234 73.1082 78.2162 74.9167L73.8241 82.2615C73.0121 83.6271 72.237 85.1772 72.237 85.1772H72.1632C72.1632 85.1772 71.3512 83.6271 70.5761 82.2615L66.1471 74.9167C65.0768 73.1082 64.4125 72.8499 62.6039 72.8499H61.6443V75.1382H62.2349C62.973 75.1382 63.4897 75.3227 63.9326 76.0978L70.9083 87.5025V98.7964ZM80.877 89.4217C80.877 95.0317 85.2322 99.2393 90.6577 99.2393C96.0832 99.2393 100.438 95.0317 100.438 89.4217C100.438 83.9223 96.0832 79.7886 90.6577 79.7886C85.2322 79.7886 80.877 83.9223 80.877 89.4217ZM83.4237 89.4217C83.4237 85.2141 86.6716 82.04 90.6577 82.04C94.6438 82.04 97.8917 85.2141 97.8917 89.4217C97.8917 93.74 94.6438 96.9879 90.6577 96.9879C86.6716 96.9879 83.4237 93.74 83.4237 89.4217ZM104.813 92.0422C104.813 96.8772 106.658 99.2393 111.05 99.2393C115.147 99.2393 117.583 96.3604 118.284 94.5519H118.358C118.358 94.5519 118.284 95.1425 118.284 95.8806V96.7295C118.284 98.132 118.985 98.7964 120.536 98.7964H123.119V96.6188H121.569C121.052 96.6188 120.757 96.3604 120.757 95.8068V80.2315H118.247V89.1264C118.247 93.1494 115.627 96.8772 111.382 96.8772C107.802 96.8772 107.322 94.2936 107.322 91.3778V82.4091C107.322 80.8959 106.658 80.2315 105.071 80.2315H102.45V82.4091H104.001C104.517 82.4091 104.813 82.6675 104.813 83.2211V92.0422Z" fill="white"/>
<path fill-rule="evenodd" clip-rule="evenodd" d="M71.3967 26.3962C74.2932 26.3962 76.6579 28.752 76.6579 31.6377V35.0249V35.0305C76.6579 40.458 73.7727 45.6769 68.9866 48.2582C64.9077 50.6028 61.0155 50.6422 57.3892 49.391C62.4807 47.1761 66.0392 42.0022 66.141 36.1408L66.1354 31.6377C66.1297 28.752 68.5001 26.3962 71.3967 26.3962Z" fill="url(#paint0_linear)"/>
<path fill-rule="evenodd" clip-rule="evenodd" d="M52.6088 12.6725C49.7122 12.6725 47.3418 15.0283 47.3418 17.914V35.0248V35.0305C47.3418 35.1657 47.3475 35.3066 47.3475 35.4419H47.3418C47.3418 40.9821 50.4533 45.8008 55.0244 48.2581C59.0637 50.6591 63.2219 50.676 66.6955 49.3459C61.536 47.1028 57.8644 41.8669 57.8587 35.8984V35.8871L57.8644 35.8477H57.8587L57.8701 17.914C57.8701 15.0283 55.4996 12.6725 52.6088 12.6725Z" fill="white"/>
<path d="M71.3966 23.1554C74.3023 23.1554 76.6578 20.8087 76.6578 17.9139C76.6578 15.0191 74.3023 12.6724 71.3966 12.6724C68.4908 12.6724 66.1353 15.0191 66.1353 17.9139C66.1353 20.8087 68.4908 23.1554 71.3966 23.1554Z" fill="white"/>
</g>
<defs>
<linearGradient id="paint0_linear" x1="61.089" y1="48.9176" x2="71.21" y2="39.8677" gradientUnits="userSpaceOnUse">
<stop stop-color="#FFDC5C"/>
<stop offset="1" stop-color="white"/>
</linearGradient>
<clipPath id="clip0">
<rect width="124" height="108" fill="white"/>
</clipPath>
</defs>
</svg>
